<mxfile host="65bd71144e">
    <diagram id="6Mdo_7V_zTlNMOUpt2Pl" name="Page-1">
        <mxGraphModel dx="2623" dy="1238" grid="1" gridSize="10" guides="1" tooltips="1" connect="1" arrows="1" fold="1" page="1" pageScale="1" pageWidth="850" pageHeight="1100" math="0" shadow="0">
            <root>
                <mxCell id="0"/>
                <mxCell id="1" parent="0"/>
                <mxCell id="9" value="" style="endArrow=none;html=1;fontSize=11;" edge="1" parent="1">
                    <mxGeometry width="50" height="50" relative="1" as="geometry">
                        <mxPoint x="200" y="640" as="sourcePoint"/>
                        <mxPoint y="640" as="targetPoint"/>
                        <Array as="points">
                            <mxPoint x="100" y="640"/>
                        </Array>
                    </mxGeometry>
                </mxCell>
                <mxCell id="11" value="&lt;span data-lucid-content=&quot;{&amp;quot;t&amp;quot;:&amp;quot;Livre&amp;quot;,&amp;quot;m&amp;quot;:[{&amp;quot;s&amp;quot;:0,&amp;quot;n&amp;quot;:&amp;quot;a&amp;quot;,&amp;quot;v&amp;quot;:null},{&amp;quot;s&amp;quot;:0,&amp;quot;n&amp;quot;:&amp;quot;b&amp;quot;,&amp;quot;v&amp;quot;:true,&amp;quot;e&amp;quot;:5},{&amp;quot;s&amp;quot;:0,&amp;quot;n&amp;quot;:&amp;quot;s&amp;quot;,&amp;quot;v&amp;quot;:53.333333333333336,&amp;quot;e&amp;quot;:5}]}&quot; data-lucid-type=&quot;application/vnd.lucid.text&quot;&gt;&lt;font style=&quot;font-size: 12px;&quot;&gt;Livre&lt;/font&gt;&lt;/span&gt;" style="swimlane;whiteSpace=wrap;html=1;strokeColor=#FFFFFF;" vertex="1" parent="1">
                    <mxGeometry x="520" y="150" width="200" height="400" as="geometry"/>
                </mxCell>
                <mxCell id="12" value="&lt;span data-lucid-content=&quot;{&amp;quot;t&amp;quot;:&amp;quot;- id \n- Nom \n- Prenom\n- Email\n \n\n&amp;quot;,&amp;quot;m&amp;quot;:[{&amp;quot;s&amp;quot;:0,&amp;quot;n&amp;quot;:&amp;quot;fsp&amp;quot;,&amp;quot;v&amp;quot;:&amp;quot;ss_presetShapeStyle1_textStyle&amp;quot;,&amp;quot;e&amp;quot;:33},{&amp;quot;s&amp;quot;:0,&amp;quot;n&amp;quot;:&amp;quot;s&amp;quot;,&amp;quot;v&amp;quot;:40,&amp;quot;e&amp;quot;:33}]}&quot; data-lucid-type=&quot;application/vnd.lucid.text&quot;&gt;&lt;span data-lucid-content=&quot;{&amp;quot;t&amp;quot;:&amp;quot;- id \n- titre \n- auteur\n- tag \n- disponibilite\n&amp;quot;,&amp;quot;m&amp;quot;:[{&amp;quot;s&amp;quot;:0,&amp;quot;n&amp;quot;:&amp;quot;fsp&amp;quot;,&amp;quot;v&amp;quot;:&amp;quot;ss_presetShapeStyle1_textStyle&amp;quot;,&amp;quot;e&amp;quot;:47},{&amp;quot;s&amp;quot;:0,&amp;quot;n&amp;quot;:&amp;quot;s&amp;quot;,&amp;quot;v&amp;quot;:40,&amp;quot;e&amp;quot;:47}]}&quot; data-lucid-type=&quot;application/vnd.lucid.text&quot;&gt;&lt;font style=&quot;font-size: 12px;&quot;&gt;- id &lt;br&gt;&lt;br&gt;- titre &lt;br&gt;&lt;br&gt;- auteur&lt;br&gt;&lt;br&gt;- tag &lt;br&gt;&lt;br&gt;- disponibilite&lt;/font&gt;&lt;br&gt;&lt;/span&gt;&lt;/span&gt;" style="text;strokeColor=none;align=center;fillColor=none;html=1;verticalAlign=middle;whiteSpace=wrap;rounded=0;" vertex="1" parent="11">
                    <mxGeometry x="-50" y="40" width="255" height="130" as="geometry"/>
                </mxCell>
                <mxCell id="15" value="&lt;span data-lucid-content=&quot;{&amp;quot;t&amp;quot;:&amp;quot;ajouter()\nmodifier()\nsupprimer()\nlister()&amp;quot;,&amp;quot;m&amp;quot;:[{&amp;quot;s&amp;quot;:0,&amp;quot;n&amp;quot;:&amp;quot;a&amp;quot;,&amp;quot;v&amp;quot;:&amp;quot;left&amp;quot;},{&amp;quot;s&amp;quot;:0,&amp;quot;n&amp;quot;:&amp;quot;fl&amp;quot;,&amp;quot;v&amp;quot;:19.555600000000002},{&amp;quot;s&amp;quot;:0,&amp;quot;n&amp;quot;:&amp;quot;il&amp;quot;,&amp;quot;v&amp;quot;:19.555600000000002},{&amp;quot;s&amp;quot;:0,&amp;quot;n&amp;quot;:&amp;quot;l&amp;quot;,&amp;quot;v&amp;quot;:&amp;quot;square&amp;quot;},{&amp;quot;s&amp;quot;:0,&amp;quot;n&amp;quot;:&amp;quot;p&amp;quot;,&amp;quot;v&amp;quot;:1.1499973863695765},{&amp;quot;s&amp;quot;:0,&amp;quot;n&amp;quot;:&amp;quot;t&amp;quot;,&amp;quot;v&amp;quot;:&amp;quot;ul&amp;quot;},{&amp;quot;s&amp;quot;:10,&amp;quot;n&amp;quot;:&amp;quot;a&amp;quot;,&amp;quot;v&amp;quot;:&amp;quot;left&amp;quot;},{&amp;quot;s&amp;quot;:10,&amp;quot;n&amp;quot;:&amp;quot;fl&amp;quot;,&amp;quot;v&amp;quot;:19.555600000000002},{&amp;quot;s&amp;quot;:10,&amp;quot;n&amp;quot;:&amp;quot;il&amp;quot;,&amp;quot;v&amp;quot;:19.555600000000002},{&amp;quot;s&amp;quot;:10,&amp;quot;n&amp;quot;:&amp;quot;l&amp;quot;,&amp;quot;v&amp;quot;:&amp;quot;square&amp;quot;},{&amp;quot;s&amp;quot;:10,&amp;quot;n&amp;quot;:&amp;quot;p&amp;quot;,&amp;quot;v&amp;quot;:1.1499973863695765},{&amp;quot;s&amp;quot;:10,&amp;quot;n&amp;quot;:&amp;quot;t&amp;quot;,&amp;quot;v&amp;quot;:&amp;quot;ul&amp;quot;},{&amp;quot;s&amp;quot;:21,&amp;quot;n&amp;quot;:&amp;quot;a&amp;quot;,&amp;quot;v&amp;quot;:&amp;quot;left&amp;quot;},{&amp;quot;s&amp;quot;:21,&amp;quot;n&amp;quot;:&amp;quot;fl&amp;quot;,&amp;quot;v&amp;quot;:19.555600000000002},{&amp;quot;s&amp;quot;:21,&amp;quot;n&amp;quot;:&amp;quot;il&amp;quot;,&amp;quot;v&amp;quot;:19.555600000000002},{&amp;quot;s&amp;quot;:21,&amp;quot;n&amp;quot;:&amp;quot;l&amp;quot;,&amp;quot;v&amp;quot;:&amp;quot;square&amp;quot;},{&amp;quot;s&amp;quot;:21,&amp;quot;n&amp;quot;:&amp;quot;p&amp;quot;,&amp;quot;v&amp;quot;:1.1499973863695765},{&amp;quot;s&amp;quot;:21,&amp;quot;n&amp;quot;:&amp;quot;t&amp;quot;,&amp;quot;v&amp;quot;:&amp;quot;ul&amp;quot;},{&amp;quot;s&amp;quot;:33,&amp;quot;n&amp;quot;:&amp;quot;a&amp;quot;,&amp;quot;v&amp;quot;:&amp;quot;left&amp;quot;},{&amp;quot;s&amp;quot;:33,&amp;quot;n&amp;quot;:&amp;quot;fl&amp;quot;,&amp;quot;v&amp;quot;:19.555600000000002},{&amp;quot;s&amp;quot;:33,&amp;quot;n&amp;quot;:&amp;quot;il&amp;quot;,&amp;quot;v&amp;quot;:19.555600000000002},{&amp;quot;s&amp;quot;:33,&amp;quot;n&amp;quot;:&amp;quot;l&amp;quot;,&amp;quot;v&amp;quot;:&amp;quot;square&amp;quot;},{&amp;quot;s&amp;quot;:33,&amp;quot;n&amp;quot;:&amp;quot;p&amp;quot;,&amp;quot;v&amp;quot;:1.1499973863695765},{&amp;quot;s&amp;quot;:33,&amp;quot;n&amp;quot;:&amp;quot;t&amp;quot;,&amp;quot;v&amp;quot;:&amp;quot;ul&amp;quot;},{&amp;quot;s&amp;quot;:0,&amp;quot;n&amp;quot;:&amp;quot;c&amp;quot;,&amp;quot;v&amp;quot;:&amp;quot;#1071e5ff&amp;quot;,&amp;quot;e&amp;quot;:41},{&amp;quot;s&amp;quot;:0,&amp;quot;n&amp;quot;:&amp;quot;s&amp;quot;,&amp;quot;v&amp;quot;:40,&amp;quot;e&amp;quot;:41}]}&quot; data-lucid-type=&quot;application/vnd.lucid.text&quot;&gt;&lt;font style=&quot;font-size: 11px;&quot;&gt;&lt;span style=&quot;color: rgb(16, 113, 229);&quot;&gt;ajouter()&lt;br&gt;&lt;br&gt;&lt;/span&gt;&lt;span style=&quot;color: rgb(16, 113, 229);&quot;&gt;modifier()&lt;br&gt;&lt;/span&gt;&lt;span style=&quot;color: rgb(16, 113, 229);&quot;&gt;&lt;br&gt;supprimer()&lt;br&gt;&lt;/span&gt;&lt;span style=&quot;color: rgb(16, 113, 229);&quot;&gt;&lt;br&gt;lister()&lt;/span&gt;&lt;/font&gt;&lt;/span&gt;" style="text;whiteSpace=wrap;html=1;fontSize=12;" vertex="1" parent="11">
                    <mxGeometry x="50" y="220" width="190" height="170" as="geometry"/>
                </mxCell>
                <mxCell id="14" value="" style="endArrow=none;html=1;fontSize=11;" edge="1" parent="1">
                    <mxGeometry width="50" height="50" relative="1" as="geometry">
                        <mxPoint x="720" y="350" as="sourcePoint"/>
                        <mxPoint x="520" y="350" as="targetPoint"/>
                        <Array as="points">
                            <mxPoint x="600" y="350"/>
                        </Array>
                    </mxGeometry>
                </mxCell>
                <mxCell id="16" value="&lt;span data-lucid-content=&quot;{&amp;quot;t&amp;quot;:&amp;quot;Réservation&amp;quot;,&amp;quot;m&amp;quot;:[{&amp;quot;s&amp;quot;:0,&amp;quot;n&amp;quot;:&amp;quot;a&amp;quot;,&amp;quot;v&amp;quot;:null},{&amp;quot;s&amp;quot;:0,&amp;quot;n&amp;quot;:&amp;quot;b&amp;quot;,&amp;quot;v&amp;quot;:true,&amp;quot;e&amp;quot;:11},{&amp;quot;s&amp;quot;:0,&amp;quot;n&amp;quot;:&amp;quot;s&amp;quot;,&amp;quot;v&amp;quot;:40,&amp;quot;e&amp;quot;:11}]}&quot; data-lucid-type=&quot;application/vnd.lucid.text&quot;&gt;&lt;font style=&quot;font-size: 18px;&quot;&gt;Réservation&lt;/font&gt;&lt;/span&gt;" style="swimlane;whiteSpace=wrap;html=1;strokeColor=#FFFFFF;" vertex="1" parent="1">
                    <mxGeometry x="-630" y="310" width="260" height="380" as="geometry"/>
                </mxCell>
                <mxCell id="17" value="&lt;span data-lucid-content=&quot;{&amp;quot;t&amp;quot;:&amp;quot;- id \n- Nom \n- Prenom\n- Email\n \n\n&amp;quot;,&amp;quot;m&amp;quot;:[{&amp;quot;s&amp;quot;:0,&amp;quot;n&amp;quot;:&amp;quot;fsp&amp;quot;,&amp;quot;v&amp;quot;:&amp;quot;ss_presetShapeStyle1_textStyle&amp;quot;,&amp;quot;e&amp;quot;:33},{&amp;quot;s&amp;quot;:0,&amp;quot;n&amp;quot;:&amp;quot;s&amp;quot;,&amp;quot;v&amp;quot;:40,&amp;quot;e&amp;quot;:33}]}&quot; data-lucid-type=&quot;application/vnd.lucid.text&quot;&gt;&lt;font style=&quot;font-size: 14px;&quot;&gt;- id &lt;br&gt;&lt;br&gt;- id_user&lt;br&gt;&lt;br&gt;- id_livres&lt;br&gt;&lt;br&gt;- dateReservation&lt;br&gt;&lt;/font&gt;&lt;font style=&quot;font-size: 18px;&quot;&gt;-etat&lt;/font&gt;&lt;/span&gt;" style="text;strokeColor=none;align=center;fillColor=none;html=1;verticalAlign=middle;whiteSpace=wrap;rounded=0;" vertex="1" parent="16">
                    <mxGeometry x="5" y="20" width="255" height="130" as="geometry"/>
                </mxCell>
                <mxCell id="18" value="&lt;span data-lucid-content=&quot;{&amp;quot;t&amp;quot;:&amp;quot;- id \n- Nom \n- Prenom\n- Email\n \n\n&amp;quot;,&amp;quot;m&amp;quot;:[{&amp;quot;s&amp;quot;:0,&amp;quot;n&amp;quot;:&amp;quot;fsp&amp;quot;,&amp;quot;v&amp;quot;:&amp;quot;ss_presetShapeStyle1_textStyle&amp;quot;,&amp;quot;e&amp;quot;:33},{&amp;quot;s&amp;quot;:0,&amp;quot;n&amp;quot;:&amp;quot;s&amp;quot;,&amp;quot;v&amp;quot;:40,&amp;quot;e&amp;quot;:33}]}&quot; data-lucid-type=&quot;application/vnd.lucid.text&quot;&gt;&lt;span data-lucid-content=&quot;{&amp;quot;t&amp;quot;:&amp;quot;reserver()\nannuler()\nvalider()\narchiver()&amp;quot;,&amp;quot;m&amp;quot;:[{&amp;quot;s&amp;quot;:0,&amp;quot;n&amp;quot;:&amp;quot;p&amp;quot;,&amp;quot;v&amp;quot;:1.1499973863695765},{&amp;quot;s&amp;quot;:0,&amp;quot;n&amp;quot;:&amp;quot;t&amp;quot;,&amp;quot;v&amp;quot;:&amp;quot;ul&amp;quot;},{&amp;quot;s&amp;quot;:0,&amp;quot;n&amp;quot;:&amp;quot;l&amp;quot;,&amp;quot;v&amp;quot;:&amp;quot;square&amp;quot;},{&amp;quot;s&amp;quot;:0,&amp;quot;n&amp;quot;:&amp;quot;il&amp;quot;,&amp;quot;v&amp;quot;:19.555600000000002},{&amp;quot;s&amp;quot;:0,&amp;quot;n&amp;quot;:&amp;quot;fl&amp;quot;,&amp;quot;v&amp;quot;:19.555600000000002},{&amp;quot;s&amp;quot;:0,&amp;quot;n&amp;quot;:&amp;quot;a&amp;quot;,&amp;quot;v&amp;quot;:&amp;quot;left&amp;quot;},{&amp;quot;s&amp;quot;:11,&amp;quot;n&amp;quot;:&amp;quot;p&amp;quot;,&amp;quot;v&amp;quot;:1.1499973863695765},{&amp;quot;s&amp;quot;:11,&amp;quot;n&amp;quot;:&amp;quot;t&amp;quot;,&amp;quot;v&amp;quot;:&amp;quot;ul&amp;quot;},{&amp;quot;s&amp;quot;:11,&amp;quot;n&amp;quot;:&amp;quot;l&amp;quot;,&amp;quot;v&amp;quot;:&amp;quot;square&amp;quot;},{&amp;quot;s&amp;quot;:11,&amp;quot;n&amp;quot;:&amp;quot;il&amp;quot;,&amp;quot;v&amp;quot;:19.555600000000002},{&amp;quot;s&amp;quot;:11,&amp;quot;n&amp;quot;:&amp;quot;fl&amp;quot;,&amp;quot;v&amp;quot;:19.555600000000002},{&amp;quot;s&amp;quot;:11,&amp;quot;n&amp;quot;:&amp;quot;a&amp;quot;,&amp;quot;v&amp;quot;:&amp;quot;left&amp;quot;},{&amp;quot;s&amp;quot;:21,&amp;quot;n&amp;quot;:&amp;quot;p&amp;quot;,&amp;quot;v&amp;quot;:1.1499973863695765},{&amp;quot;s&amp;quot;:21,&amp;quot;n&amp;quot;:&amp;quot;t&amp;quot;,&amp;quot;v&amp;quot;:&amp;quot;ul&amp;quot;},{&amp;quot;s&amp;quot;:21,&amp;quot;n&amp;quot;:&amp;quot;l&amp;quot;,&amp;quot;v&amp;quot;:&amp;quot;square&amp;quot;},{&amp;quot;s&amp;quot;:21,&amp;quot;n&amp;quot;:&amp;quot;il&amp;quot;,&amp;quot;v&amp;quot;:19.555600000000002},{&amp;quot;s&amp;quot;:21,&amp;quot;n&amp;quot;:&amp;quot;fl&amp;quot;,&amp;quot;v&amp;quot;:19.555600000000002},{&amp;quot;s&amp;quot;:21,&amp;quot;n&amp;quot;:&amp;quot;a&amp;quot;,&amp;quot;v&amp;quot;:&amp;quot;left&amp;quot;},{&amp;quot;s&amp;quot;:31,&amp;quot;n&amp;quot;:&amp;quot;p&amp;quot;,&amp;quot;v&amp;quot;:1.1499973863695765},{&amp;quot;s&amp;quot;:31,&amp;quot;n&amp;quot;:&amp;quot;t&amp;quot;,&amp;quot;v&amp;quot;:&amp;quot;ul&amp;quot;},{&amp;quot;s&amp;quot;:31,&amp;quot;n&amp;quot;:&amp;quot;l&amp;quot;,&amp;quot;v&amp;quot;:&amp;quot;square&amp;quot;},{&amp;quot;s&amp;quot;:31,&amp;quot;n&amp;quot;:&amp;quot;il&amp;quot;,&amp;quot;v&amp;quot;:19.555600000000002},{&amp;quot;s&amp;quot;:31,&amp;quot;n&amp;quot;:&amp;quot;fl&amp;quot;,&amp;quot;v&amp;quot;:19.555600000000002},{&amp;quot;s&amp;quot;:31,&amp;quot;n&amp;quot;:&amp;quot;a&amp;quot;,&amp;quot;v&amp;quot;:&amp;quot;left&amp;quot;},{&amp;quot;s&amp;quot;:0,&amp;quot;n&amp;quot;:&amp;quot;c&amp;quot;,&amp;quot;v&amp;quot;:&amp;quot;#635dffff&amp;quot;,&amp;quot;e&amp;quot;:41},{&amp;quot;s&amp;quot;:0,&amp;quot;n&amp;quot;:&amp;quot;s&amp;quot;,&amp;quot;v&amp;quot;:40,&amp;quot;e&amp;quot;:41}]}&quot; data-lucid-type=&quot;application/vnd.lucid.text&quot;&gt;&lt;font style=&quot;font-size: 24px;&quot;&gt;&lt;span style=&quot;color: rgb(99, 93, 255);&quot;&gt;reserver()&lt;br&gt;&lt;/span&gt;&lt;span style=&quot;color: rgb(99, 93, 255);&quot;&gt;&lt;br&gt;annuler()&lt;br&gt;&lt;/span&gt;&lt;span style=&quot;color: rgb(99, 93, 255);&quot;&gt;&lt;br&gt;valider()&lt;br&gt;&lt;/span&gt;&lt;span style=&quot;color: rgb(99, 93, 255);&quot;&gt;archiver()&lt;/span&gt;&lt;/font&gt;&lt;/span&gt;&lt;span style=&quot;font-size:30px;&quot;&gt;&lt;br&gt;&lt;/span&gt;&lt;/span&gt;" style="text;strokeColor=none;align=center;fillColor=none;html=1;verticalAlign=middle;whiteSpace=wrap;rounded=0;" vertex="1" parent="16">
                    <mxGeometry x="30" y="220" width="190" height="85" as="geometry"/>
                </mxCell>
                <mxCell id="19" value="" style="endArrow=none;html=1;fontSize=11;exitX=0;exitY=0.25;exitDx=0;exitDy=0;" edge="1" parent="16" source="40">
                    <mxGeometry width="50" height="50" relative="1" as="geometry">
                        <mxPoint x="160" y="150" as="sourcePoint"/>
                        <mxPoint y="150" as="targetPoint"/>
                        <Array as="points">
                            <mxPoint x="60" y="150"/>
                        </Array>
                    </mxGeometry>
                </mxCell>
                <mxCell id="20" value="&lt;span data-lucid-content=&quot;{&amp;quot;t&amp;quot;:&amp;quot;categuory&amp;quot;,&amp;quot;m&amp;quot;:[{&amp;quot;s&amp;quot;:0,&amp;quot;n&amp;quot;:&amp;quot;fsp&amp;quot;,&amp;quot;v&amp;quot;:&amp;quot;ss_presetShapeStyle1_textStyle&amp;quot;,&amp;quot;e&amp;quot;:9},{&amp;quot;s&amp;quot;:0,&amp;quot;n&amp;quot;:&amp;quot;s&amp;quot;,&amp;quot;v&amp;quot;:40,&amp;quot;e&amp;quot;:9}]}&quot; data-lucid-type=&quot;application/vnd.lucid.text&quot;&gt;&lt;font style=&quot;font-size: 14px;&quot;&gt;categuory&lt;/font&gt;&lt;/span&gt;" style="swimlane;whiteSpace=wrap;html=1;strokeColor=#FFFFFF;" vertex="1" parent="1">
                    <mxGeometry x="47.5" y="30" width="190" height="330" as="geometry"/>
                </mxCell>
                <mxCell id="21" value="&lt;span data-lucid-content=&quot;{&amp;quot;t&amp;quot;:&amp;quot;- id\n - created_at\n- name\n\n&amp;quot;,&amp;quot;m&amp;quot;:[{&amp;quot;s&amp;quot;:0,&amp;quot;n&amp;quot;:&amp;quot;fsp&amp;quot;,&amp;quot;v&amp;quot;:&amp;quot;ss_presetShapeStyle1_textStyle&amp;quot;,&amp;quot;e&amp;quot;:27},{&amp;quot;s&amp;quot;:0,&amp;quot;n&amp;quot;:&amp;quot;s&amp;quot;,&amp;quot;v&amp;quot;:40,&amp;quot;e&amp;quot;:27}]}&quot; data-lucid-type=&quot;application/vnd.lucid.text&quot;&gt;&lt;font style=&quot;font-size: 12px;&quot;&gt;- id&lt;br&gt;&lt;br&gt; - created_at&lt;br&gt;&lt;br&gt;- name&lt;br&gt;&lt;/font&gt;&lt;span style=&quot;font-size:30px;&quot;&gt;&lt;br&gt;&lt;/span&gt;&lt;/span&gt;" style="text;strokeColor=none;align=center;fillColor=none;html=1;verticalAlign=middle;whiteSpace=wrap;rounded=0;" vertex="1" parent="20">
                    <mxGeometry x="-47.5" y="22" width="255" height="130" as="geometry"/>
                </mxCell>
                <mxCell id="23" value="" style="endArrow=none;html=1;fontSize=11;" edge="1" parent="20">
                    <mxGeometry width="50" height="50" relative="1" as="geometry">
                        <mxPoint x="160" y="150" as="sourcePoint"/>
                        <mxPoint y="150" as="targetPoint"/>
                        <Array as="points">
                            <mxPoint x="60" y="150"/>
                        </Array>
                    </mxGeometry>
                </mxCell>
                <mxCell id="22" value="&lt;span data-lucid-content=&quot;{&amp;quot;t&amp;quot;:&amp;quot;- id \n- Nom \n- Prenom\n- Email\n \n\n&amp;quot;,&amp;quot;m&amp;quot;:[{&amp;quot;s&amp;quot;:0,&amp;quot;n&amp;quot;:&amp;quot;fsp&amp;quot;,&amp;quot;v&amp;quot;:&amp;quot;ss_presetShapeStyle1_textStyle&amp;quot;,&amp;quot;e&amp;quot;:33},{&amp;quot;s&amp;quot;:0,&amp;quot;n&amp;quot;:&amp;quot;s&amp;quot;,&amp;quot;v&amp;quot;:40,&amp;quot;e&amp;quot;:33}]}&quot; data-lucid-type=&quot;application/vnd.lucid.text&quot;&gt;&lt;span data-lucid-content=&quot;{&amp;quot;t&amp;quot;:&amp;quot;MergeTagAndCategorie()&amp;quot;,&amp;quot;m&amp;quot;:[{&amp;quot;s&amp;quot;:0,&amp;quot;n&amp;quot;:&amp;quot;a&amp;quot;,&amp;quot;v&amp;quot;:&amp;quot;left&amp;quot;},{&amp;quot;s&amp;quot;:0,&amp;quot;n&amp;quot;:&amp;quot;fl&amp;quot;,&amp;quot;v&amp;quot;:19.555600000000002},{&amp;quot;s&amp;quot;:0,&amp;quot;n&amp;quot;:&amp;quot;il&amp;quot;,&amp;quot;v&amp;quot;:19.555600000000002},{&amp;quot;s&amp;quot;:0,&amp;quot;n&amp;quot;:&amp;quot;l&amp;quot;,&amp;quot;v&amp;quot;:&amp;quot;square&amp;quot;},{&amp;quot;s&amp;quot;:0,&amp;quot;n&amp;quot;:&amp;quot;p&amp;quot;,&amp;quot;v&amp;quot;:1.1499973863695765},{&amp;quot;s&amp;quot;:0,&amp;quot;n&amp;quot;:&amp;quot;t&amp;quot;,&amp;quot;v&amp;quot;:&amp;quot;ul&amp;quot;},{&amp;quot;s&amp;quot;:0,&amp;quot;n&amp;quot;:&amp;quot;c&amp;quot;,&amp;quot;v&amp;quot;:&amp;quot;#1071e5ff&amp;quot;,&amp;quot;e&amp;quot;:22},{&amp;quot;s&amp;quot;:0,&amp;quot;n&amp;quot;:&amp;quot;s&amp;quot;,&amp;quot;v&amp;quot;:26.666666666666668,&amp;quot;e&amp;quot;:22}]}&quot; data-lucid-type=&quot;application/vnd.lucid.text&quot;&gt;&lt;span style=&quot;color: rgb(16, 113, 229);&quot;&gt;&lt;font style=&quot;&quot;&gt;&lt;font style=&quot;font-size: 14px;&quot;&gt;MergeTagAndCategorie()&lt;/font&gt;&lt;br&gt;&lt;/font&gt;&lt;/span&gt;&lt;/span&gt;&lt;font style=&quot;font-size: 14px;&quot;&gt;CrierCategorie&lt;br&gt;&lt;/font&gt;&lt;span data-lucid-content=&quot;{&amp;quot;t&amp;quot;:&amp;quot;MergeTagAndCategorie()&amp;quot;,&amp;quot;m&amp;quot;:[{&amp;quot;s&amp;quot;:0,&amp;quot;n&amp;quot;:&amp;quot;a&amp;quot;,&amp;quot;v&amp;quot;:&amp;quot;left&amp;quot;},{&amp;quot;s&amp;quot;:0,&amp;quot;n&amp;quot;:&amp;quot;fl&amp;quot;,&amp;quot;v&amp;quot;:19.555600000000002},{&amp;quot;s&amp;quot;:0,&amp;quot;n&amp;quot;:&amp;quot;il&amp;quot;,&amp;quot;v&amp;quot;:19.555600000000002},{&amp;quot;s&amp;quot;:0,&amp;quot;n&amp;quot;:&amp;quot;l&amp;quot;,&amp;quot;v&amp;quot;:&amp;quot;square&amp;quot;},{&amp;quot;s&amp;quot;:0,&amp;quot;n&amp;quot;:&amp;quot;p&amp;quot;,&amp;quot;v&amp;quot;:1.1499973863695765},{&amp;quot;s&amp;quot;:0,&amp;quot;n&amp;quot;:&amp;quot;t&amp;quot;,&amp;quot;v&amp;quot;:&amp;quot;ul&amp;quot;},{&amp;quot;s&amp;quot;:0,&amp;quot;n&amp;quot;:&amp;quot;c&amp;quot;,&amp;quot;v&amp;quot;:&amp;quot;#1071e5ff&amp;quot;,&amp;quot;e&amp;quot;:22},{&amp;quot;s&amp;quot;:0,&amp;quot;n&amp;quot;:&amp;quot;s&amp;quot;,&amp;quot;v&amp;quot;:26.666666666666668,&amp;quot;e&amp;quot;:22}]}&quot; data-lucid-type=&quot;application/vnd.lucid.text&quot;&gt;&lt;span style=&quot;color: rgb(16, 113, 229);&quot;&gt;&lt;br&gt;&lt;/span&gt;&lt;/span&gt;&lt;font size=&quot;3&quot;&gt;SupprimerCategorie&lt;br&gt;&lt;/font&gt;&lt;br&gt;&lt;font size=&quot;3&quot;&gt;updateCategorie&lt;br&gt;&lt;br&gt;listerCategorie&lt;br&gt;&lt;/font&gt;&lt;br&gt;&lt;br&gt;lil&lt;br&gt;&lt;/span&gt;" style="text;strokeColor=none;align=center;fillColor=none;html=1;verticalAlign=middle;whiteSpace=wrap;rounded=0;" vertex="1" parent="20">
                    <mxGeometry y="220" width="190" height="85" as="geometry"/>
                </mxCell>
                <mxCell id="24" value="&lt;span data-lucid-content=&quot;{&amp;quot;t&amp;quot;:&amp;quot;categuory&amp;quot;,&amp;quot;m&amp;quot;:[{&amp;quot;s&amp;quot;:0,&amp;quot;n&amp;quot;:&amp;quot;fsp&amp;quot;,&amp;quot;v&amp;quot;:&amp;quot;ss_presetShapeStyle1_textStyle&amp;quot;,&amp;quot;e&amp;quot;:9},{&amp;quot;s&amp;quot;:0,&amp;quot;n&amp;quot;:&amp;quot;s&amp;quot;,&amp;quot;v&amp;quot;:40,&amp;quot;e&amp;quot;:9}]}&quot; data-lucid-type=&quot;application/vnd.lucid.text&quot;&gt;&lt;font style=&quot;font-size: 14px;&quot;&gt;Role&lt;/font&gt;&lt;/span&gt;" style="swimlane;whiteSpace=wrap;html=1;strokeColor=#FFFFFF;" vertex="1" parent="1">
                    <mxGeometry x="427.5" y="630" width="225" height="230" as="geometry"/>
                </mxCell>
                <mxCell id="25" value="&lt;span data-lucid-content=&quot;{&amp;quot;t&amp;quot;:&amp;quot;- id\n - created_at\n- name\n\n&amp;quot;,&amp;quot;m&amp;quot;:[{&amp;quot;s&amp;quot;:0,&amp;quot;n&amp;quot;:&amp;quot;fsp&amp;quot;,&amp;quot;v&amp;quot;:&amp;quot;ss_presetShapeStyle1_textStyle&amp;quot;,&amp;quot;e&amp;quot;:27},{&amp;quot;s&amp;quot;:0,&amp;quot;n&amp;quot;:&amp;quot;s&amp;quot;,&amp;quot;v&amp;quot;:40,&amp;quot;e&amp;quot;:27}]}&quot; data-lucid-type=&quot;application/vnd.lucid.text&quot;&gt;&lt;font style=&quot;font-size: 12px;&quot;&gt;- id&lt;br&gt;&lt;br&gt; - name&lt;br&gt;&lt;br&gt;&lt;br&gt;&lt;/font&gt;&lt;span style=&quot;font-size:30px;&quot;&gt;&lt;br&gt;&lt;/span&gt;&lt;/span&gt;" style="text;strokeColor=none;align=center;fillColor=none;html=1;verticalAlign=middle;whiteSpace=wrap;rounded=0;" vertex="1" parent="24">
                    <mxGeometry x="-47.5" y="22" width="255" height="130" as="geometry"/>
                </mxCell>
                <mxCell id="27" value="" style="endArrow=none;html=1;fontSize=11;" edge="1" parent="24">
                    <mxGeometry width="50" height="50" relative="1" as="geometry">
                        <mxPoint x="160" y="150" as="sourcePoint"/>
                        <mxPoint y="150" as="targetPoint"/>
                        <Array as="points">
                            <mxPoint x="60" y="150"/>
                        </Array>
                    </mxGeometry>
                </mxCell>
                <mxCell id="31" value="&lt;span data-lucid-content=&quot;{&amp;quot;t&amp;quot;:&amp;quot;- id\n - created_at\n- name\n\n&amp;quot;,&amp;quot;m&amp;quot;:[{&amp;quot;s&amp;quot;:0,&amp;quot;n&amp;quot;:&amp;quot;fsp&amp;quot;,&amp;quot;v&amp;quot;:&amp;quot;ss_presetShapeStyle1_textStyle&amp;quot;,&amp;quot;e&amp;quot;:27},{&amp;quot;s&amp;quot;:0,&amp;quot;n&amp;quot;:&amp;quot;s&amp;quot;,&amp;quot;v&amp;quot;:40,&amp;quot;e&amp;quot;:27}]}&quot; data-lucid-type=&quot;application/vnd.lucid.text&quot;&gt;&lt;span style=&quot;font-size:30px;&quot;&gt;1..1&lt;br&gt;&lt;/span&gt;&lt;/span&gt;" style="text;strokeColor=none;align=center;fillColor=none;html=1;verticalAlign=middle;whiteSpace=wrap;rounded=0;fontSize=12;" vertex="1" parent="24">
                    <mxGeometry x="-87.5" y="80" width="105" height="50" as="geometry"/>
                </mxCell>
                <mxCell id="7" value="Utilisateur" style="swimlane;whiteSpace=wrap;html=1;strokeColor=#FFFFFF;" vertex="1" parent="24">
                    <mxGeometry x="-427.5" y="-130" width="240" height="990" as="geometry"/>
                </mxCell>
                <mxCell id="8" value="&lt;span data-lucid-content=&quot;{&amp;quot;t&amp;quot;:&amp;quot;- id \n- Nom \n- Prenom\n- Email\n \n\n&amp;quot;,&amp;quot;m&amp;quot;:[{&amp;quot;s&amp;quot;:0,&amp;quot;n&amp;quot;:&amp;quot;fsp&amp;quot;,&amp;quot;v&amp;quot;:&amp;quot;ss_presetShapeStyle1_textStyle&amp;quot;,&amp;quot;e&amp;quot;:33},{&amp;quot;s&amp;quot;:0,&amp;quot;n&amp;quot;:&amp;quot;s&amp;quot;,&amp;quot;v&amp;quot;:40,&amp;quot;e&amp;quot;:33}]}&quot; data-lucid-type=&quot;application/vnd.lucid.text&quot;&gt;&lt;font style=&quot;font-size: 11px;&quot;&gt;- id &lt;br&gt;&lt;br&gt;- Nom &lt;br&gt;&lt;br&gt;- Prenom&lt;br&gt;- Email&lt;/font&gt;&lt;span style=&quot;font-size:30px;&quot;&gt;&lt;br&gt;&lt;/span&gt;&lt;/span&gt;" style="text;strokeColor=none;align=center;fillColor=none;html=1;verticalAlign=middle;whiteSpace=wrap;rounded=0;" vertex="1" parent="7">
                    <mxGeometry x="-20" y="30" width="235" height="110" as="geometry"/>
                </mxCell>
                <mxCell id="10" value="&lt;span data-lucid-content=&quot;{&amp;quot;t&amp;quot;:&amp;quot;- id \n- Nom \n- Prenom\n- Email\n \n\n&amp;quot;,&amp;quot;m&amp;quot;:[{&amp;quot;s&amp;quot;:0,&amp;quot;n&amp;quot;:&amp;quot;fsp&amp;quot;,&amp;quot;v&amp;quot;:&amp;quot;ss_presetShapeStyle1_textStyle&amp;quot;,&amp;quot;e&amp;quot;:33},{&amp;quot;s&amp;quot;:0,&amp;quot;n&amp;quot;:&amp;quot;s&amp;quot;,&amp;quot;v&amp;quot;:40,&amp;quot;e&amp;quot;:33}]}&quot; data-lucid-type=&quot;application/vnd.lucid.text&quot;&gt;&lt;span data-lucid-content=&quot;{&amp;quot;t&amp;quot;:&amp;quot;seConnecter()\nseDeconnecter()\nmodifierUtilisateur()\nchangePassword()&amp;quot;,&amp;quot;m&amp;quot;:[{&amp;quot;s&amp;quot;:0,&amp;quot;n&amp;quot;:&amp;quot;p&amp;quot;,&amp;quot;v&amp;quot;:1.1499973863695765},{&amp;quot;s&amp;quot;:0,&amp;quot;n&amp;quot;:&amp;quot;t&amp;quot;,&amp;quot;v&amp;quot;:&amp;quot;ul&amp;quot;},{&amp;quot;s&amp;quot;:0,&amp;quot;n&amp;quot;:&amp;quot;l&amp;quot;,&amp;quot;v&amp;quot;:&amp;quot;square&amp;quot;},{&amp;quot;s&amp;quot;:0,&amp;quot;n&amp;quot;:&amp;quot;il&amp;quot;,&amp;quot;v&amp;quot;:19.555600000000002},{&amp;quot;s&amp;quot;:0,&amp;quot;n&amp;quot;:&amp;quot;fl&amp;quot;,&amp;quot;v&amp;quot;:19.555600000000002},{&amp;quot;s&amp;quot;:0,&amp;quot;n&amp;quot;:&amp;quot;a&amp;quot;,&amp;quot;v&amp;quot;:&amp;quot;left&amp;quot;},{&amp;quot;s&amp;quot;:0,&amp;quot;n&amp;quot;:&amp;quot;c&amp;quot;,&amp;quot;v&amp;quot;:&amp;quot;#1071e5ff&amp;quot;,&amp;quot;e&amp;quot;:68},{&amp;quot;s&amp;quot;:0,&amp;quot;n&amp;quot;:&amp;quot;s&amp;quot;,&amp;quot;v&amp;quot;:40,&amp;quot;e&amp;quot;:68},{&amp;quot;s&amp;quot;:14,&amp;quot;n&amp;quot;:&amp;quot;p&amp;quot;,&amp;quot;v&amp;quot;:1.1499973863695765},{&amp;quot;s&amp;quot;:14,&amp;quot;n&amp;quot;:&amp;quot;t&amp;quot;,&amp;quot;v&amp;quot;:&amp;quot;ul&amp;quot;},{&amp;quot;s&amp;quot;:14,&amp;quot;n&amp;quot;:&amp;quot;l&amp;quot;,&amp;quot;v&amp;quot;:&amp;quot;square&amp;quot;},{&amp;quot;s&amp;quot;:14,&amp;quot;n&amp;quot;:&amp;quot;il&amp;quot;,&amp;quot;v&amp;quot;:19.555600000000002},{&amp;quot;s&amp;quot;:14,&amp;quot;n&amp;quot;:&amp;quot;fl&amp;quot;,&amp;quot;v&amp;quot;:19.555600000000002},{&amp;quot;s&amp;quot;:14,&amp;quot;n&amp;quot;:&amp;quot;a&amp;quot;,&amp;quot;v&amp;quot;:&amp;quot;left&amp;quot;},{&amp;quot;s&amp;quot;:30,&amp;quot;n&amp;quot;:&amp;quot;p&amp;quot;,&amp;quot;v&amp;quot;:1.1499973863695765},{&amp;quot;s&amp;quot;:30,&amp;quot;n&amp;quot;:&amp;quot;t&amp;quot;,&amp;quot;v&amp;quot;:&amp;quot;ul&amp;quot;},{&amp;quot;s&amp;quot;:30,&amp;quot;n&amp;quot;:&amp;quot;l&amp;quot;,&amp;quot;v&amp;quot;:&amp;quot;square&amp;quot;},{&amp;quot;s&amp;quot;:30,&amp;quot;n&amp;quot;:&amp;quot;il&amp;quot;,&amp;quot;v&amp;quot;:19.555600000000002},{&amp;quot;s&amp;quot;:30,&amp;quot;n&amp;quot;:&amp;quot;fl&amp;quot;,&amp;quot;v&amp;quot;:19.555600000000002},{&amp;quot;s&amp;quot;:30,&amp;quot;n&amp;quot;:&amp;quot;a&amp;quot;,&amp;quot;v&amp;quot;:&amp;quot;left&amp;quot;},{&amp;quot;s&amp;quot;:52,&amp;quot;n&amp;quot;:&amp;quot;p&amp;quot;,&amp;quot;v&amp;quot;:1.1499973863695765},{&amp;quot;s&amp;quot;:52,&amp;quot;n&amp;quot;:&amp;quot;t&amp;quot;,&amp;quot;v&amp;quot;:&amp;quot;ul&amp;quot;},{&amp;quot;s&amp;quot;:52,&amp;quot;n&amp;quot;:&amp;quot;l&amp;quot;,&amp;quot;v&amp;quot;:&amp;quot;square&amp;quot;},{&amp;quot;s&amp;quot;:52,&amp;quot;n&amp;quot;:&amp;quot;il&amp;quot;,&amp;quot;v&amp;quot;:19.555600000000002},{&amp;quot;s&amp;quot;:52,&amp;quot;n&amp;quot;:&amp;quot;fl&amp;quot;,&amp;quot;v&amp;quot;:19.555600000000002},{&amp;quot;s&amp;quot;:52,&amp;quot;n&amp;quot;:&amp;quot;a&amp;quot;,&amp;quot;v&amp;quot;:&amp;quot;left&amp;quot;}]}&quot; data-lucid-type=&quot;application/vnd.lucid.text&quot;&gt;&lt;font style=&quot;font-size: 18px;&quot;&gt;&lt;span style=&quot;color: rgb(16, 113, 229);&quot;&gt;seConnecter()&lt;br&gt;&lt;/span&gt;&lt;span style=&quot;color: rgb(16, 113, 229);&quot;&gt;&lt;br&gt;seDeconnecter()&lt;br&gt;&lt;/span&gt;&lt;span style=&quot;color: rgb(16, 113, 229);&quot;&gt;&lt;br&gt;modifierUtilisateur()&lt;br&gt;&lt;/span&gt;&lt;span style=&quot;color: rgb(16, 113, 229);&quot;&gt;changePassword()&lt;/span&gt;&lt;/font&gt;&lt;/span&gt;&lt;span style=&quot;font-size:30px;&quot;&gt;&lt;br&gt;&lt;/span&gt;&lt;/span&gt;" style="text;strokeColor=none;align=center;fillColor=none;html=1;verticalAlign=middle;whiteSpace=wrap;rounded=0;" vertex="1" parent="7">
                    <mxGeometry x="12.5" y="190" width="190" height="85" as="geometry"/>
                </mxCell>
                <mxCell id="39" value="&lt;span data-lucid-content=&quot;{&amp;quot;t&amp;quot;:&amp;quot;- id\n - created_at\n- name\n\n&amp;quot;,&amp;quot;m&amp;quot;:[{&amp;quot;s&amp;quot;:0,&amp;quot;n&amp;quot;:&amp;quot;fsp&amp;quot;,&amp;quot;v&amp;quot;:&amp;quot;ss_presetShapeStyle1_textStyle&amp;quot;,&amp;quot;e&amp;quot;:27},{&amp;quot;s&amp;quot;:0,&amp;quot;n&amp;quot;:&amp;quot;s&amp;quot;,&amp;quot;v&amp;quot;:40,&amp;quot;e&amp;quot;:27}]}&quot; data-lucid-type=&quot;application/vnd.lucid.text&quot;&gt;&lt;span style=&quot;font-size:30px;&quot;&gt;1..1&lt;br&gt;&lt;/span&gt;&lt;/span&gt;" style="text;strokeColor=none;align=center;fillColor=none;html=1;verticalAlign=middle;whiteSpace=wrap;rounded=0;fontSize=12;" vertex="1" parent="7">
                    <mxGeometry x="-80" y="70" width="105" height="50" as="geometry"/>
                </mxCell>
                <mxCell id="62" value="&lt;span style=&quot;font-size: 24px;&quot;&gt;GererRole()&lt;br&gt;&lt;/span&gt;&lt;span style=&quot;font-size: 24px;&quot;&gt;CrierRole()&lt;br&gt;&lt;/span&gt;&lt;span style=&quot;font-size: 24px;&quot;&gt;UpdateRole()&lt;br&gt;&lt;/span&gt;&lt;span style=&quot;font-size: 24px;&quot;&gt;ListerRole()&lt;/span&gt;&lt;span style=&quot;font-size: 24px;&quot;&gt;&lt;br&gt;&lt;/span&gt;&lt;span style=&quot;font-size: 24px;&quot;&gt;SupprimerRole()&lt;/span&gt;&lt;br style=&quot;font-size: 24px;&quot;&gt;&lt;span style=&quot;font-size: 24px;&quot;&gt;CrierLivre()&lt;br&gt;ListerLivre()&lt;br&gt;SupprimerLivre()&lt;br&gt;UpdateLivre()&lt;br&gt;&lt;br&gt;&lt;/span&gt;" style="text;html=1;align=center;verticalAlign=middle;resizable=0;points=[];autosize=1;fontSize=12;" vertex="1" parent="7">
                    <mxGeometry x="25" y="320" width="200" height="300" as="geometry"/>
                </mxCell>
                <mxCell id="60" value="&lt;span style=&quot;font-size: 24px;&quot;&gt;reserver()&lt;br&gt;consulter()&lt;br&gt;annuler()&lt;br&gt;&lt;/span&gt;" style="text;html=1;align=center;verticalAlign=middle;resizable=0;points=[];autosize=1;strokeColor=none;fillColor=none;fontSize=12;" vertex="1" parent="7">
                    <mxGeometry x="55" y="610" width="140" height="100" as="geometry"/>
                </mxCell>
                <mxCell id="64" value="&lt;span style=&quot;font-size: 24px;&quot;&gt;GestionReservation()&lt;br&gt;&lt;/span&gt;&lt;span style=&quot;font-size: 24px;&quot;&gt;CrierLivre()&lt;/span&gt;&lt;br style=&quot;font-size: 24px;&quot;&gt;&lt;span style=&quot;font-size: 24px;&quot;&gt;ListerLivre()&lt;/span&gt;&lt;br style=&quot;font-size: 24px;&quot;&gt;&lt;span style=&quot;font-size: 24px;&quot;&gt;Crier()&lt;/span&gt;&lt;br style=&quot;font-size: 24px;&quot;&gt;&lt;span style=&quot;font-size: 24px;&quot;&gt;UpdateLivre()&lt;/span&gt;&lt;span style=&quot;font-size: 24px;&quot;&gt;&lt;br&gt;&lt;/span&gt;" style="text;html=1;align=center;verticalAlign=middle;resizable=0;points=[];autosize=1;strokeColor=none;fillColor=none;fontSize=12;" vertex="1" parent="7">
                    <mxGeometry y="750" width="250" height="160" as="geometry"/>
                </mxCell>
                <mxCell id="33" value="" style="endArrow=none;html=1;fontSize=12;exitX=0.5;exitY=1;exitDx=0;exitDy=0;" edge="1" parent="1" source="34" target="31">
                    <mxGeometry width="50" height="50" relative="1" as="geometry">
                        <mxPoint x="240" y="660" as="sourcePoint"/>
                        <mxPoint x="170" y="430" as="targetPoint"/>
                        <Array as="points"/>
                    </mxGeometry>
                </mxCell>
                <mxCell id="34" value="&lt;span data-lucid-content=&quot;{&amp;quot;t&amp;quot;:&amp;quot;- id\n - created_at\n- name\n\n&amp;quot;,&amp;quot;m&amp;quot;:[{&amp;quot;s&amp;quot;:0,&amp;quot;n&amp;quot;:&amp;quot;fsp&amp;quot;,&amp;quot;v&amp;quot;:&amp;quot;ss_presetShapeStyle1_textStyle&amp;quot;,&amp;quot;e&amp;quot;:27},{&amp;quot;s&amp;quot;:0,&amp;quot;n&amp;quot;:&amp;quot;s&amp;quot;,&amp;quot;v&amp;quot;:40,&amp;quot;e&amp;quot;:27}]}&quot; data-lucid-type=&quot;application/vnd.lucid.text&quot;&gt;&lt;span style=&quot;font-size:30px;&quot;&gt;1..*&lt;br&gt;&lt;/span&gt;&lt;/span&gt;" style="text;strokeColor=none;align=center;fillColor=none;html=1;verticalAlign=middle;whiteSpace=wrap;rounded=0;fontSize=12;" vertex="1" parent="1">
                    <mxGeometry x="190" y="630" width="130" height="70" as="geometry"/>
                </mxCell>
                <mxCell id="35" value="&lt;span data-lucid-content=&quot;{&amp;quot;t&amp;quot;:&amp;quot;- id\n - created_at\n- name\n\n&amp;quot;,&amp;quot;m&amp;quot;:[{&amp;quot;s&amp;quot;:0,&amp;quot;n&amp;quot;:&amp;quot;fsp&amp;quot;,&amp;quot;v&amp;quot;:&amp;quot;ss_presetShapeStyle1_textStyle&amp;quot;,&amp;quot;e&amp;quot;:27},{&amp;quot;s&amp;quot;:0,&amp;quot;n&amp;quot;:&amp;quot;s&amp;quot;,&amp;quot;v&amp;quot;:40,&amp;quot;e&amp;quot;:27}]}&quot; data-lucid-type=&quot;application/vnd.lucid.text&quot;&gt;&lt;span style=&quot;font-size:30px;&quot;&gt;1..1&lt;br&gt;&lt;/span&gt;&lt;/span&gt;" style="text;strokeColor=none;align=center;fillColor=none;html=1;verticalAlign=middle;whiteSpace=wrap;rounded=0;fontSize=12;" vertex="1" parent="1">
                    <mxGeometry x="440" y="430" width="105" height="50" as="geometry"/>
                </mxCell>
                <mxCell id="36" value="&lt;span data-lucid-content=&quot;{&amp;quot;t&amp;quot;:&amp;quot;- id\n - created_at\n- name\n\n&amp;quot;,&amp;quot;m&amp;quot;:[{&amp;quot;s&amp;quot;:0,&amp;quot;n&amp;quot;:&amp;quot;fsp&amp;quot;,&amp;quot;v&amp;quot;:&amp;quot;ss_presetShapeStyle1_textStyle&amp;quot;,&amp;quot;e&amp;quot;:27},{&amp;quot;s&amp;quot;:0,&amp;quot;n&amp;quot;:&amp;quot;s&amp;quot;,&amp;quot;v&amp;quot;:40,&amp;quot;e&amp;quot;:27}]}&quot; data-lucid-type=&quot;application/vnd.lucid.text&quot;&gt;&lt;span style=&quot;font-size:30px;&quot;&gt;1..1&lt;br&gt;&lt;/span&gt;&lt;/span&gt;" style="text;strokeColor=none;align=center;fillColor=none;html=1;verticalAlign=middle;whiteSpace=wrap;rounded=0;fontSize=12;" vertex="1" parent="1">
                    <mxGeometry x="210" y="180" width="105" height="50" as="geometry"/>
                </mxCell>
                <mxCell id="38" value="" style="endArrow=none;html=1;fontSize=12;entryX=0.5;entryY=1;entryDx=0;entryDy=0;" edge="1" parent="1" source="35" target="36">
                    <mxGeometry width="50" height="50" relative="1" as="geometry">
                        <mxPoint x="120" y="480" as="sourcePoint"/>
                        <mxPoint x="170" y="430" as="targetPoint"/>
                    </mxGeometry>
                </mxCell>
                <mxCell id="40" value="&lt;span data-lucid-content=&quot;{&amp;quot;t&amp;quot;:&amp;quot;- id\n - created_at\n- name\n\n&amp;quot;,&amp;quot;m&amp;quot;:[{&amp;quot;s&amp;quot;:0,&amp;quot;n&amp;quot;:&amp;quot;fsp&amp;quot;,&amp;quot;v&amp;quot;:&amp;quot;ss_presetShapeStyle1_textStyle&amp;quot;,&amp;quot;e&amp;quot;:27},{&amp;quot;s&amp;quot;:0,&amp;quot;n&amp;quot;:&amp;quot;s&amp;quot;,&amp;quot;v&amp;quot;:40,&amp;quot;e&amp;quot;:27}]}&quot; data-lucid-type=&quot;application/vnd.lucid.text&quot;&gt;&lt;span style=&quot;font-size:30px;&quot;&gt;1..*&lt;br&gt;&lt;/span&gt;&lt;/span&gt;" style="text;strokeColor=none;align=center;fillColor=none;html=1;verticalAlign=middle;whiteSpace=wrap;rounded=0;fontSize=12;" vertex="1" parent="1">
                    <mxGeometry x="-380" y="450" width="105" height="50" as="geometry"/>
                </mxCell>
                <mxCell id="41" value="" style="endArrow=none;html=1;fontSize=12;" edge="1" parent="1" source="39">
                    <mxGeometry width="50" height="50" relative="1" as="geometry">
                        <mxPoint x="-370" y="620" as="sourcePoint"/>
                        <mxPoint x="-370" y="520" as="targetPoint"/>
                        <Array as="points">
                            <mxPoint x="-130" y="460"/>
                        </Array>
                    </mxGeometry>
                </mxCell>
                <mxCell id="44" value="" style="endArrow=none;html=1;fontSize=12;entryX=1;entryY=0;entryDx=0;entryDy=0;startArrow=none;" edge="1" parent="1" source="42" target="8">
                    <mxGeometry width="50" height="50" relative="1" as="geometry">
                        <mxPoint x="520" y="525" as="sourcePoint"/>
                        <mxPoint x="140" y="770" as="targetPoint"/>
                    </mxGeometry>
                </mxCell>
                <mxCell id="43" value="&lt;span data-lucid-content=&quot;{&amp;quot;t&amp;quot;:&amp;quot;- id\n - created_at\n- name\n\n&amp;quot;,&amp;quot;m&amp;quot;:[{&amp;quot;s&amp;quot;:0,&amp;quot;n&amp;quot;:&amp;quot;fsp&amp;quot;,&amp;quot;v&amp;quot;:&amp;quot;ss_presetShapeStyle1_textStyle&amp;quot;,&amp;quot;e&amp;quot;:27},{&amp;quot;s&amp;quot;:0,&amp;quot;n&amp;quot;:&amp;quot;s&amp;quot;,&amp;quot;v&amp;quot;:40,&amp;quot;e&amp;quot;:27}]}&quot; data-lucid-type=&quot;application/vnd.lucid.text&quot;&gt;&lt;span style=&quot;font-size:30px;&quot;&gt;1..1&lt;br&gt;&lt;/span&gt;&lt;/span&gt;" style="text;strokeColor=none;align=center;fillColor=none;html=1;verticalAlign=middle;whiteSpace=wrap;rounded=0;fontSize=12;" vertex="1" parent="1">
                    <mxGeometry x="200" y="480" width="105" height="50" as="geometry"/>
                </mxCell>
                <mxCell id="46" value="" style="endArrow=none;html=1;fontSize=12;entryX=1;entryY=0;entryDx=0;entryDy=0;" edge="1" parent="1" target="42">
                    <mxGeometry width="50" height="50" relative="1" as="geometry">
                        <mxPoint x="520" y="525" as="sourcePoint"/>
                        <mxPoint x="195" y="550" as="targetPoint"/>
                    </mxGeometry>
                </mxCell>
                <mxCell id="42" value="&lt;span data-lucid-content=&quot;{&amp;quot;t&amp;quot;:&amp;quot;- id\n - created_at\n- name\n\n&amp;quot;,&amp;quot;m&amp;quot;:[{&amp;quot;s&amp;quot;:0,&amp;quot;n&amp;quot;:&amp;quot;fsp&amp;quot;,&amp;quot;v&amp;quot;:&amp;quot;ss_presetShapeStyle1_textStyle&amp;quot;,&amp;quot;e&amp;quot;:27},{&amp;quot;s&amp;quot;:0,&amp;quot;n&amp;quot;:&amp;quot;s&amp;quot;,&amp;quot;v&amp;quot;:40,&amp;quot;e&amp;quot;:27}]}&quot; data-lucid-type=&quot;application/vnd.lucid.text&quot;&gt;&lt;span style=&quot;font-size:30px;&quot;&gt;1..1&lt;br&gt;&lt;/span&gt;&lt;/span&gt;" style="text;strokeColor=none;align=center;fillColor=none;html=1;verticalAlign=middle;whiteSpace=wrap;rounded=0;fontSize=12;" vertex="1" parent="1">
                    <mxGeometry x="427.5" y="480" width="105" height="50" as="geometry"/>
                </mxCell>
                <mxCell id="54" value="&lt;span data-lucid-content=&quot;{&amp;quot;t&amp;quot;:&amp;quot;- id\n - created_at\n- name\n\n&amp;quot;,&amp;quot;m&amp;quot;:[{&amp;quot;s&amp;quot;:0,&amp;quot;n&amp;quot;:&amp;quot;fsp&amp;quot;,&amp;quot;v&amp;quot;:&amp;quot;ss_presetShapeStyle1_textStyle&amp;quot;,&amp;quot;e&amp;quot;:27},{&amp;quot;s&amp;quot;:0,&amp;quot;n&amp;quot;:&amp;quot;s&amp;quot;,&amp;quot;v&amp;quot;:40,&amp;quot;e&amp;quot;:27}]}&quot; data-lucid-type=&quot;application/vnd.lucid.text&quot;&gt;&lt;span style=&quot;font-size:30px;&quot;&gt;1..*&lt;br&gt;&lt;/span&gt;&lt;/span&gt;" style="text;strokeColor=none;align=center;fillColor=none;html=1;verticalAlign=middle;whiteSpace=wrap;rounded=0;fontSize=12;" vertex="1" parent="1">
                    <mxGeometry x="-510" y="250" width="105" height="50" as="geometry"/>
                </mxCell>
                <mxCell id="26" value="&lt;span data-lucid-content=&quot;{&amp;quot;t&amp;quot;:&amp;quot;- id \n- Nom \n- Prenom\n- Email\n \n\n&amp;quot;,&amp;quot;m&amp;quot;:[{&amp;quot;s&amp;quot;:0,&amp;quot;n&amp;quot;:&amp;quot;fsp&amp;quot;,&amp;quot;v&amp;quot;:&amp;quot;ss_presetShapeStyle1_textStyle&amp;quot;,&amp;quot;e&amp;quot;:33},{&amp;quot;s&amp;quot;:0,&amp;quot;n&amp;quot;:&amp;quot;s&amp;quot;,&amp;quot;v&amp;quot;:40,&amp;quot;e&amp;quot;:33}]}&quot; data-lucid-type=&quot;application/vnd.lucid.text&quot;&gt;&lt;span data-lucid-content=&quot;{&amp;quot;t&amp;quot;:&amp;quot;MergeTagAndCategorie()&amp;quot;,&amp;quot;m&amp;quot;:[{&amp;quot;s&amp;quot;:0,&amp;quot;n&amp;quot;:&amp;quot;a&amp;quot;,&amp;quot;v&amp;quot;:&amp;quot;left&amp;quot;},{&amp;quot;s&amp;quot;:0,&amp;quot;n&amp;quot;:&amp;quot;fl&amp;quot;,&amp;quot;v&amp;quot;:19.555600000000002},{&amp;quot;s&amp;quot;:0,&amp;quot;n&amp;quot;:&amp;quot;il&amp;quot;,&amp;quot;v&amp;quot;:19.555600000000002},{&amp;quot;s&amp;quot;:0,&amp;quot;n&amp;quot;:&amp;quot;l&amp;quot;,&amp;quot;v&amp;quot;:&amp;quot;square&amp;quot;},{&amp;quot;s&amp;quot;:0,&amp;quot;n&amp;quot;:&amp;quot;p&amp;quot;,&amp;quot;v&amp;quot;:1.1499973863695765},{&amp;quot;s&amp;quot;:0,&amp;quot;n&amp;quot;:&amp;quot;t&amp;quot;,&amp;quot;v&amp;quot;:&amp;quot;ul&amp;quot;},{&amp;quot;s&amp;quot;:0,&amp;quot;n&amp;quot;:&amp;quot;c&amp;quot;,&amp;quot;v&amp;quot;:&amp;quot;#1071e5ff&amp;quot;,&amp;quot;e&amp;quot;:22},{&amp;quot;s&amp;quot;:0,&amp;quot;n&amp;quot;:&amp;quot;s&amp;quot;,&amp;quot;v&amp;quot;:26.666666666666668,&amp;quot;e&amp;quot;:22}]}&quot; data-lucid-type=&quot;application/vnd.lucid.text&quot;&gt;&lt;span style=&quot;color: rgb(16, 113, 229);&quot;&gt;&lt;font style=&quot;font-size: 18px;&quot;&gt;MergeTagAndCategorie&lt;/font&gt;&lt;font style=&quot;font-size: 12px;&quot;&gt;()&lt;/font&gt;&lt;/span&gt;&lt;/span&gt;&lt;span style=&quot;font-size:30px;&quot;&gt;&lt;br&gt;&lt;/span&gt;&lt;/span&gt;" style="text;strokeColor=none;align=center;fillColor=none;html=1;verticalAlign=middle;whiteSpace=wrap;rounded=0;" vertex="1" parent="1">
                    <mxGeometry x="1530" y="1270" width="190" height="85" as="geometry"/>
                </mxCell>
            </root>
        </mxGraphModel>
    </diagram>
</mxfile>